<svg width="25" height="16" viewBox="0 0 25 16" xmlns="http://www.w3.org/2000/svg">
    <path d="M5.871 9.588h17.505c.71-.001 1.259-.37 1.501-1.005.254-.666.112-1.27-.395-1.737a1.78 1.78 0 0 0-.862-.41c-.416-.074-.852-.037-1.28-.037-3.464-.002-12.928 0-16.392-.002-.166 0-.333-.014-.625-.026.213-.223.344-.363.48-.5 1.072-1.077 2.15-2.149 3.215-3.233.444-.453.625-.993.398-1.622-.21-.583-.633-.914-1.232-1C7.598-.068 7.144.192 6.74.6 5.268 2.091 3.788 3.573 2.31 5.057c-.586.59-1.18 1.173-1.76 1.769-.723.741-.74 1.599-.018 2.33 2.107 2.132 4.227 4.25 6.34 6.376.45.45.991.56 1.578.395.571-.162.907-.583 1.027-1.163.12-.576-.106-1.044-.502-1.443L5.673 9.992c-.097-.098-.188-.202-.374-.404h.572z" fill="#FFF" fill-rule="evenodd"/>
</svg>
