<svg width="26" height="25" viewBox="0 0 26 25" xmlns="http://www.w3.org/2000/svg">
    <path d="m18.556 6.095-.004.006c-.487.53-1.307.559-1.83.064l-1.327-1.26c-.416-.393-1.095-.094-1.095.481v8.174c0 .727-.582 1.316-1.3 1.316-.718 0-1.3-.589-1.3-1.316V5.406c0-.58-.685-.875-1.099-.475L9.335 6.15a1.278 1.278 0 0 1-1.833-.05 1.32 1.32 0 0 1 .056-1.845L11.261.719a2.576 2.576 0 0 1 3.579.008L18.5 4.26c.511.493.536 1.31.056 1.834zM26 22.661C26 23.947 25.116 25 23.254 25H2.311C1.035 25 0 23.953 0 22.66v-8.48c0-1.223.92-2.338 2.454-2.338H3.91c.712 0 1.291.584 1.291 1.307v.017a1.3 1.3 0 0 1-1.29 1.308h-.02c-.712 0-1.29.584-1.29 1.306v5.28a1.3 1.3 0 0 0 1.29 1.308h18.22a1.3 1.3 0 0 0 1.29-1.307v-5.28c0-.723-.578-1.307-1.29-1.307h-.02a1.3 1.3 0 0 1-1.29-1.308v-.017c0-.723.579-1.307 1.29-1.307h1.599c1.276 0 2.311 1.047 2.311 2.338v8.48z" fill="#FFF" fill-rule="evenodd"/>
</svg>
