<svg width="26" height="26" viewBox="0 0 26 26" xmlns="http://www.w3.org/2000/svg">
    <path d="M20.975 0H5.025A5.03 5.03 0 0 0 0 5.025v15.95A5.03 5.03 0 0 0 5.025 26h15.95A5.03 5.03 0 0 0 26 20.975V5.025A5.03 5.03 0 0 0 20.975 0zm1.442 2.998.575-.003v4.407l-4.394.014-.015-4.408 3.834-.01zM9.29 10.33A4.57 4.57 0 0 1 13 8.423a4.57 4.57 0 0 1 3.71 1.908c.543.752.867 1.672.867 2.669A4.582 4.582 0 0 1 13 17.575 4.581 4.581 0 0 1 8.425 13c0-.997.324-1.917.865-2.67zm14.177 10.644a2.494 2.494 0 0 1-2.492 2.492H5.025a2.494 2.494 0 0 1-2.492-2.492V10.331h3.883A7.058 7.058 0 0 0 5.892 13c0 3.92 3.188 7.11 7.108 7.11 3.921 0 7.11-3.19 7.11-7.11 0-.943-.191-1.844-.524-2.67h3.881v10.645z" fill="#FFF" fill-rule="evenodd"/>
</svg>
