<svg width="20" height="20" viewBox="0 0 20 20" xmlns="http://www.w3.org/2000/svg">
    <path d="M19.303 3.76 16.37.82a2.075 2.075 0 0 0-2.926 0L9.128 5.093a2.075 2.075 0 0 0 0 2.94l.996 1.004-1.066 1.065-.982-.982a2.075 2.075 0 0 0-2.933 0l-4.31 4.268a2.075 2.075 0 0 0 0 2.947l2.926 2.933c.39.387.918.603 1.467.602a2.075 2.075 0 0 0 1.46-.595l4.31-4.282c.394-.387.618-.915.622-1.467a2.075 2.075 0 0 0-.609-1.473l-.94-.976 1.065-1.065.961.955c.81.804 2.117.804 2.926 0l4.31-4.276c.383-.39.593-.919.581-1.466 0-.55-.22-1.078-.609-1.467zm-9.276 9.276c.132.13.207.306.207.491a.692.692 0 0 1-.207.484l-4.31 4.282a.692.692 0 0 1-.975 0l-2.933-2.94a.692.692 0 0 1-.208-.49c0-.186.076-.362.208-.492l4.31-4.303a.692.692 0 0 1 .975 0l.982.983-1.958 1.957.983.983 1.957-1.958.969 1.003zm8.301-7.319-4.317 4.275a.692.692 0 0 1-.975 0l-.955-.954L14.018 7.1l-.982-.983-1.937 1.937-.996-.996a.692.692 0 0 1 0-.982l4.31-4.275a.692.692 0 0 1 .498-.201.692.692 0 0 1 .49.2l2.934 2.934a.692.692 0 0 1 0 .982h-.007z" fill="#3C3C3C" fill-rule="evenodd"/>
</svg>
