<svg width="21" height="22" viewBox="0 0 21 22" xmlns="http://www.w3.org/2000/svg">
    <path d="M19.616 16.412c.851 1.475.36 3.352-1.095 4.192-1.457.841-3.327.327-4.179-1.147-.851-1.475-.36-3.352 1.096-4.193 1.456-.84 3.326-.327 4.178 1.148zM3.974 10.678c1.643 0 2.974 1.342 2.974 2.996S5.617 16.67 3.974 16.67C2.332 16.67 1 15.328 1 13.674s1.332-2.996 2.974-2.996zM13.723 1c1.688 0 3.056 1.378 3.056 3.078s-1.368 3.078-3.056 3.078-3.056-1.378-3.056-3.078S12.035 1 13.723 1z" fill="#FFF" stroke="#FFF" stroke-width="1.6" fill-rule="evenodd"/>
</svg>
