<svg width="27" height="24" viewBox="0 0 27 24" xmlns="http://www.w3.org/2000/svg">
    <path d="M23.82 3.794c1.144-.748 2.022-1.936 2.434-3.35a10.527 10.527 0 0 1-3.519 1.47C21.727.734 20.287 0 18.693 0c-3.06 0-5.538 2.713-5.538 6.058 0 .475.046.938.141 1.38-4.602-.253-8.683-2.663-11.416-6.33a6.483 6.483 0 0 0-.75 3.047c0 2.1.978 3.955 2.464 5.044a5.201 5.201 0 0 1-2.51-.758v.075c0 2.936 1.908 5.385 4.445 5.94a4.985 4.985 0 0 1-1.46.213 5.03 5.03 0 0 1-1.042-.107c.704 2.406 2.75 4.16 5.174 4.207-1.897 1.626-4.285 2.593-6.88 2.593-.446 0-.888-.026-1.321-.083C2.452 22.996 5.363 24 8.491 24c10.19 0 15.76-9.232 15.76-17.238 0-.264-.004-.525-.015-.784A11.86 11.86 0 0 0 27 2.841c-.994.482-2.062.808-3.18.953z" fill="#FFF" fill-rule="evenodd"/>
</svg>
